PathFileType	4	(X/Y/Z)	C:\Git\research_data\Projects\torsion_deformities_healthy_kinematics\simulations\TD01\pre\static_01\marker_experimental.trc
DataRate	CameraRate	NumFrames	NumMarkers	Units	OrigDataRate	OrigDataStartFrame	OrigNumFrames
200	200	9	38	mm	200	101	200
Frame#	Time	C7			T10			CLAV			STRN			RBAK			LASI			RASI			SACR			RT1			RT2			RT3			RKNE			RS1			RS2			RS3			RANK			RHEE			RTOE			LT1			LT2			LT3			LKNE			LS1			LS2			LS3			LANK			LHEE			LTOE			LANM			RANM			RKNM			LKNM			RHJC			LHJC			LKJC			LAJC			RKJC			RAJC		
		X1	Y1	Z1	X2	Y2	Z2	X3	Y3	Z3	X4	Y4	Z4	X5	Y5	Z5	X6	Y6	Z6	X7	Y7	Z7	X8	Y8	Z8	X9	Y9	Z9	X10	Y10	Z10	X11	Y11	Z11	X12	Y12	Z12	X13	Y13	Z13	X14	Y14	Z14	X15	Y15	Z15	X16	Y16	Z16	X17	Y17	Z17	X18	Y18	Z18	X19	Y19	Z19	X20	Y20	Z20	X21	Y21	Z21	X22	Y22	Z22	X23	Y23	Z23	X24	Y24	Z24	X25	Y25	Z25	X26	Y26	Z26	X27	Y27	Z27	X28	Y28	Z28	X29	Y29	Z29	X30	Y30	Z30	X31	Y31	Z31	X32	Y32	Z32	X33	Y33	Z33	X34	Y34	Z34	X35	Y35	Z35	X36	Y36	Z36	X37	Y37	Z37	X38	Y38	Z38	

101	0.500000	611.289124	1224.842651	307.045563	608.942566	1032.933105	304.255096	624.226624	1225.028687	172.504791	624.452087	1103.461304	102.303215	704.187378	1157.300903	327.940857	515.686829	852.432312	130.531296	719.447815	860.083313	145.549408	606.259949	880.523987	300.954742	791.230713	662.396057	193.279831	803.246277	611.382385	234.857117	793.434692	596.554382	185.177841	815.272400	470.581421	223.301636	857.514404	359.093872	292.576050	858.680725	294.757233	310.216064	876.621643	302.082397	263.539368	894.947205	94.625191	285.408508	834.683716	74.352661	313.133240	920.465576	65.761803	144.336304	437.333069	664.897400	198.052338	429.817078	606.015198	228.640366	437.401001	601.669861	177.284164	410.574127	460.683167	222.631958	368.060455	341.540985	295.762238	360.886627	277.206512	308.692322	349.723816	288.419678	260.034058	336.404602	96.759506	308.561066	386.774750	77.034943	326.445404	285.254913	64.353043	164.641998	402.093872	91.657845	250.339890	817.232483	103.177734	239.143768	712.516174	431.235748	214.580765	523.177429	420.948395	217.600632	690.099180	794.911889	203.134757	541.066623	789.315880	192.150380	466.875778	440.815781	220.116295	369.249237	94.208675	279.450478	763.894287	450.908585	218.941200	856.089844	98.901463	262.276138	
102	0.505000	611.248474	1224.873657	307.003967	608.938538	1032.969116	304.293213	624.187012	1225.007080	172.454544	624.421814	1103.397705	102.327530	704.164734	1157.336060	327.931244	515.678528	852.425781	130.606293	719.443481	860.088257	145.625580	606.263550	880.523499	301.029602	791.220093	662.399536	193.353897	803.273132	611.387146	234.903824	793.429016	596.553223	185.231796	815.276855	470.575714	223.345993	857.544006	359.103241	292.619263	858.692932	294.756256	310.242950	876.643494	302.058838	263.574005	894.956604	94.626213	285.413116	834.681946	74.352425	313.141205	920.469055	65.763878	144.340973	437.346741	664.886475	198.117935	429.826202	606.026245	228.664383	437.669586	601.603882	177.418198	410.576477	460.691437	222.646027	368.052277	341.533081	295.775513	360.883301	277.210754	308.708649	349.742096	288.405640	260.029144	336.411224	96.754814	308.565765	386.768280	77.023331	326.456177	285.256256	64.348343	164.636749	402.098297	91.653137	250.344116	817.242615	103.178497	239.165970	712.515015	431.237305	214.616760	523.182800	420.954529	217.607788	690.097497	794.914059	203.210907	541.062356	789.309670	192.225693	466.879639	440.822983	220.126907	369.254761	94.203976	279.454941	763.895935	450.906509	218.981377	856.099609	98.902355	262.289543	
103	0.510000	611.195374	1224.901978	306.969238	608.933472	1032.971436	304.309082	624.148254	1224.984863	172.432373	624.402283	1103.352295	102.324493	704.131836	1157.391602	327.905640	515.672852	852.408081	130.673538	719.442505	860.080200	145.698639	606.273010	880.530823	301.111420	791.219910	662.400391	193.419739	803.280945	611.395142	234.984222	793.450623	596.550720	185.294144	815.290222	470.570679	223.401520	857.497620	359.080811	292.603912	858.687317	294.739044	310.268829	876.629639	302.027740	263.591644	894.958130	94.620613	285.418854	834.687805	74.346161	313.143982	920.466309	65.767097	144.342911	437.378601	664.903503	198.188690	429.858917	606.027893	228.714218	437.681000	601.613831	177.473022	410.575073	460.689636	222.663284	368.061676	341.517242	295.783813	360.565063	277.217712	308.716125	349.731354	288.407379	260.038116	336.415161	96.744713	308.551422	386.771210	77.023705	326.461731	285.261871	64.350494	164.642090	402.094147	91.650528	250.345123	817.247864	103.179977	239.154236	712.523987	431.243835	214.657196	522.945923	421.132324	217.408401	690.096103	794.910038	203.293632	541.057914	789.298610	192.304194	466.760498	440.910980	220.035843	369.254654	94.197620	279.448273	763.907104	450.907257	219.029358	856.102997	98.900295	262.286545	
104	0.515000	611.154785	1224.919434	306.935699	608.920105	1033.021729	304.344788	624.096680	1224.949951	172.392670	624.389160	1103.309937	102.318108	704.094177	1157.407349	327.928741	515.661865	852.396118	130.732971	719.447266	860.078857	145.778305	606.274353	880.538635	301.203400	791.233826	662.412903	193.495850	803.276489	611.377991	235.047806	793.456909	596.557190	185.355591	815.289429	470.573822	223.456665	857.550110	359.064575	292.686005	858.698730	294.751190	310.306396	876.632812	302.053101	263.627319	894.959412	94.619225	285.425568	834.684753	74.346092	313.149872	920.465881	65.764183	144.338715	437.369141	664.923096	198.248001	429.848907	606.026245	228.763565	437.697876	601.610046	177.536758	410.570099	460.693848	222.686844	368.054626	341.508728	295.794952	360.560303	277.209229	308.737396	349.738739	288.396484	260.065765	336.409943	96.745598	308.570190	386.772888	77.022148	326.468964	285.266022	64.348686	164.640411	402.102875	91.642212	250.349197	817.245789	103.182465	239.167145	712.530579	431.247284	214.703705	523.152527	420.945068	217.621872	690.094951	794.906673	203.380981	541.046495	789.287524	192.376837	466.861313	440.819458	220.154358	369.256409	94.193905	279.459694	763.910004	450.910553	219.080185	856.102600	98.900845	262.296356	
105	0.520000	611.134216	1224.953857	306.880035	608.897034	1033.052734	304.368042	624.070923	1224.914307	172.347382	624.355957	1103.264160	102.312958	704.042969	1157.451782	327.916138	515.679932	852.385681	130.825485	719.455627	860.084534	145.849701	606.303223	880.527710	301.265594	791.239075	662.405823	193.568481	803.291748	611.382568	235.115891	793.461426	596.550842	185.437027	815.296509	470.570709	223.504822	857.491943	359.086395	292.685486	858.709290	294.730469	310.327271	876.603027	302.051910	263.648254	894.961792	94.613312	285.421753	834.697571	74.344406	313.165833	920.459961	65.769241	144.353470	437.365784	664.929260	198.317749	429.957550	605.972351	228.878860	437.695892	601.625427	177.607071	410.568512	460.698151	222.714340	368.054962	341.496002	295.806671	360.569305	277.207458	308.734009	349.745636	288.392761	260.070404	336.405579	96.739212	308.572906	386.769440	77.006958	326.461060	285.278503	64.355957	164.645569	402.108032	91.637848	250.350784	817.245178	103.186768	239.171738	712.530151	431.248444	214.765884	522.920959	421.133453	217.420670	690.116655	794.910810	203.448072	541.074543	789.279847	192.459318	466.744736	440.915802	220.067505	369.256805	94.188530	279.461845	763.913330	450.909576	219.135353	856.103485	98.900040	262.296745	
106	0.525000	611.091370	1224.981934	306.863037	608.897644	1033.070435	304.394897	624.030334	1224.914917	172.324661	624.343933	1103.208374	102.323059	704.013916	1157.500610	327.931946	515.664124	852.379700	130.917587	719.468506	860.076843	145.929047	606.307739	880.546570	301.359619	791.252563	662.397583	193.649963	803.309265	611.377319	235.196259	793.472534	596.552246	185.510117	815.325562	470.572998	223.566010	857.534180	359.063751	292.736755	858.709167	294.720154	310.356812	876.649963	302.059570	263.687134	894.972290	94.610107	285.426086	834.696533	74.345741	313.157623	920.465576	65.779236	144.344131	437.354492	664.948914	198.360031	429.972839	605.965332	228.928940	437.374634	601.715149	177.559906	410.567871	460.699829	222.733215	368.050964	341.494904	295.819061	360.581726	277.203064	308.762360	349.740906	288.396057	260.079956	336.407745	96.729752	308.566162	386.766083	76.999748	326.465149	285.281036	64.363281	164.648270	402.116913	91.638336	250.364471	817.259216	103.188675	239.197021	712.543213	431.260895	214.836853	522.915833	421.129608	217.447311	690.127137	794.904329	203.542568	541.066006	789.274691	192.563289	466.741852	440.914719	220.090263	369.262329	94.184044	279.465317	763.934387	450.916946	219.201431	856.115753	98.899391	262.311554	
107	0.530000	611.047058	1225.011230	306.821198	608.877808	1033.094727	304.428040	623.994141	1224.868896	172.308426	624.322937	1103.161987	102.315079	703.971802	1157.547241	327.903809	515.685669	852.367615	130.988983	719.480835	860.089111	146.010803	606.309265	880.559631	301.432739	791.265259	662.406006	193.736313	803.308472	611.364502	235.255569	793.480835	596.555176	185.594803	815.333130	470.573822	223.631989	857.554810	359.039795	292.808685	858.741333	294.713165	310.406036	876.661621	302.070038	263.719696	894.976807	94.604202	285.432983	834.694336	74.333031	313.161774	920.457642	65.775803	144.359955	437.382599	664.941772	198.454834	429.993408	605.965027	229.010117	437.394592	601.721191	177.610275	410.561371	460.709076	222.747803	368.038361	341.490631	295.838409	360.581726	277.194763	308.809174	349.736908	288.376740	260.095154	336.404266	96.723877	308.566864	386.746552	76.989319	326.477692	285.284637	64.357330	164.645401	402.112549	91.633385	250.369003	817.256042	103.198013	239.207458	712.554565	431.259857	214.920181	522.903198	421.131500	217.464890	690.144861	794.920609	203.628085	541.089937	789.273139	192.641189	466.732285	440.920288	220.106346	369.258408	94.178631	279.467934	763.943848	450.916840	219.276085	856.116425	98.901108	262.320221	
108	0.535000	611.007874	1225.041626	306.778534	608.890076	1033.131592	304.439117	623.952332	1224.835571	172.255417	624.298889	1103.127441	102.306664	703.942993	1157.602905	327.884949	515.700073	852.348022	131.066269	719.479675	860.069641	146.088074	606.325134	880.574097	301.514282	791.273438	662.418335	193.822052	803.320129	611.364197	235.337952	793.486206	596.565918	185.661713	815.335510	470.562683	223.697021	857.647766	359.108368	292.865967	858.754883	294.708374	310.436920	876.691223	302.049377	263.777496	894.984741	94.603043	285.439240	834.712341	74.340340	313.169739	920.468079	65.780144	144.354782	437.337341	664.973877	198.496002	430.020996	605.956665	229.066193	437.651031	601.655945	177.732559	410.559937	460.708588	222.771591	368.047150	341.487549	295.855438	360.503082	277.096985	308.810120	349.736206	288.392059	260.098572	336.397400	96.721687	308.556976	386.756531	76.999939	326.478394	285.298798	64.363380	164.644485	402.116180	91.621262	250.372391	817.255920	103.205009	239.214722	712.560730	431.268066	214.984390	522.887451	421.147827	217.510010	690.144573	794.917846	203.719375	541.099928	789.270245	192.732409	466.723694	440.928207	220.140800	369.256790	94.171474	279.464684	763.948120	450.915375	219.340706	856.120331	98.904026	262.326981	
109	0.540000	610.958313	1225.083984	306.746796	608.876404	1033.165649	304.460541	623.924744	1224.812744	172.233551	624.267700	1103.060059	102.315262	703.883545	1157.656616	327.896851	515.695007	852.328369	131.137070	719.484863	860.058167	146.180069	606.360596	880.588867	301.577637	791.290100	662.430664	193.910568	803.351440	611.359863	235.432770	793.497864	596.574829	185.752029	815.346741	470.581543	223.759384	857.563354	359.024292	292.873657	858.763733	294.697845	310.486389	876.636169	302.048584	263.790588	894.989380	94.609512	285.442352	834.717407	74.344528	313.178772	920.467651	65.785217	144.358734	437.405151	664.950867	198.591324	430.010651	605.957336	229.115601	437.375183	601.733643	177.716431	410.551453	460.708282	222.799225	368.034760	341.485138	295.870483	360.504059	277.076080	308.822021	349.742065	288.393921	260.117584	336.388000	96.712715	308.572449	386.752350	76.984413	326.461761	285.301697	64.361526	164.649521	402.108704	91.623672	250.369995	817.263184	103.218918	239.216904	712.572327	431.271362	215.055801	522.893921	421.155121	217.514008	690.143500	794.912429	203.817308	541.092216	789.258878	192.814904	466.722687	440.931702	220.156616	369.248352	94.168194	279.471222	763.959534	450.926453	219.407593	856.126282	98.914215	262.329628	
